<?xml version="1.0" standalone="no"?><!DOCTYPE svg PUBLIC "-//W3C//DTD SVG 1.1//EN" "http://www.w3.org/Graphics/SVG/1.1/DTD/svg11.dtd"><svg t="1782128860714" class="icon" viewBox="0 0 1024 1024" version="1.1" xmlns="http://www.w3.org/2000/svg" p-id="1149" xmlns:xlink="http://www.w3.org/1999/xlink" width="200" height="200"><path d="M512 70.283c-244.514 0-442.732 197.763-442.732 441.717s198.218 441.717 442.732 441.717 442.732-197.763 442.732-441.717-198.218-441.717-442.732-441.717M735.045 558.604h-176.442v176.442c0 25.738-20.866 46.604-46.604 46.604s-46.604-20.866-46.604-46.604v-176.442h-176.442c-25.738 0-46.604-20.866-46.604-46.604s20.866-46.604 46.604-46.604h176.442v-176.442c0-25.738 20.866-46.604 46.604-46.604s46.604 20.866 46.604 46.604v176.442h176.442c25.738 0 46.604 20.866 46.604 46.604s-20.866 46.604-46.604 46.604z" fill="#b2ea1c" p-id="1150"></path></svg>